<?xml version="1.0" standalone="no"?>
<!DOCTYPE svg PUBLIC "-//W3C//DTD SVG 20010904//EN"
 "http://www.w3.org/TR/2001/REC-SVG-20010904/DTD/svg10.dtd">
<svg version="1.0" xmlns="http://www.w3.org/2000/svg"
 width="1280.000000pt" height="1238.000000pt" viewBox="0 0 1280.000000 1238.000000"
 preserveAspectRatio="xMidYMid meet">
<metadata>
Created by potrace 1.15, written by Peter Selinger 2001-2017
</metadata>
<g transform="translate(0.000000,1238.000000) scale(0.100000,-0.100000)"
fill="#000000" stroke="none">
<path d="M5930 12373 c-636 -34 -1196 -140 -1756 -334 -1385 -478 -2552 -1426
-3294 -2674 -46 -77 -91 -154 -102 -172 l-18 -31 69 -40 70 -41 100 167 c422
707 930 1276 1563 1753 1491 1122 3423 1493 5217 1003 1294 -354 2428 -1124
3236 -2199 423 -562 743 -1195 950 -1877 31 -100 57 -184 59 -186 2 -2 38 7
79 19 l75 21 -20 72 c-682 2427 -2771 4204 -5273 4485 -306 35 -693 48 -955
34z"/>
<path d="M6456 11898 c-12 -7 -49 -9 -103 -5 -105 8 -133 -2 -133 -43 0 -32
26 -50 74 -50 13 0 31 -10 42 -21 17 -19 19 -37 17 -179 0 -87 -7 -184 -13
-216 -7 -32 -13 -92 -15 -134 -4 -106 -16 -203 -28 -217 -5 -7 -26 -13 -46
-13 -50 0 -71 -18 -78 -67 -8 -59 11 -67 177 -68 74 0 140 -4 146 -8 22 -13
54 22 54 59 0 56 -13 71 -70 78 -65 9 -69 19 -62 159 4 103 6 108 33 131 23
20 37 23 80 20 58 -3 73 -13 74 -47 1 -13 5 -29 9 -35 4 -7 3 -19 -4 -27 -21
-26 26 -87 60 -78 36 10 52 58 51 152 0 47 4 133 10 191 11 116 4 154 -30 165
-29 9 -60 -11 -66 -43 -3 -15 -11 -49 -18 -77 l-12 -50 -56 -9 c-46 -7 -60 -6
-82 9 l-27 17 6 102 c10 161 12 167 64 182 58 17 95 17 145 -1 22 -8 70 -14
107 -15 36 0 74 -3 83 -6 24 -10 44 -56 51 -121 11 -96 17 -105 66 -101 61 4
72 30 53 123 -8 39 -15 84 -15 100 0 18 -8 38 -20 48 -11 9 -20 26 -20 37 0
26 -38 41 -110 44 -30 1 -67 6 -82 10 -14 4 -57 3 -95 -2 -62 -9 -145 -4 -183
11 -8 4 -24 1 -34 -5z m-226 -950 c0 -5 -4 -8 -10 -8 -5 0 -10 10 -10 23 0 18
2 19 10 7 5 -8 10 -18 10 -22z"/>
<path d="M5698 11859 c-12 -13 -26 -17 -45 -13 -38 7 -257 -22 -261 -35 -2 -6
-13 -11 -24 -11 -19 0 -85 -61 -116 -108 -8 -13 -17 -36 -18 -50 -2 -15 -6
-39 -10 -54 -4 -18 2 -44 20 -83 55 -121 141 -161 359 -171 122 -5 142 -8 183
-31 50 -28 58 -43 68 -118 8 -62 -4 -82 -100 -165 -77 -67 -109 -80 -204 -80
-58 0 -70 3 -100 30 -19 16 -42 29 -51 30 -27 0 -47 33 -54 90 -4 31 -17 71
-31 92 -25 39 -59 64 -68 50 -7 -12 3 -171 14 -212 6 -19 10 -50 10 -68 0 -44
27 -99 57 -119 23 -15 27 -15 55 2 26 15 42 17 112 10 44 -5 96 -8 113 -7 47
1 226 85 238 111 5 11 17 21 26 21 17 0 79 86 79 108 0 7 -7 12 -16 12 -9 0
-14 6 -11 13 2 6 12 11 21 11 13 -2 16 9 16 66 0 85 -8 108 -62 166 -52 57
-131 95 -196 94 -176 -3 -224 1 -262 20 -49 25 -77 60 -85 108 -10 60 6 86 80
127 66 37 66 37 150 30 84 -7 85 -7 121 -48 20 -23 43 -58 51 -77 42 -98 107
-92 88 8 -4 21 -9 53 -11 72 -4 42 -18 101 -36 152 -17 50 -67 64 -100 27z"/>
<path d="M4723 11726 c-9 -10 -9 -16 0 -25 9 -10 6 -10 -16 -2 -39 15 -57 14
-57 -4 0 -8 -4 -15 -10 -15 -5 0 -10 5 -10 10 0 16 -27 11 -34 -6 -4 -11 -13
-14 -31 -10 -14 4 -45 -2 -77 -15 -29 -11 -88 -32 -130 -45 -86 -28 -101 -39
-118 -88 -24 -72 23 -94 125 -60 29 11 49 24 53 36 4 18 9 18 57 3 24 -7 81
-119 95 -187 5 -26 23 -83 39 -127 16 -43 32 -99 36 -123 4 -23 22 -83 41
-133 19 -49 34 -100 34 -111 0 -50 -87 -114 -154 -114 -54 0 -84 -58 -56 -111
14 -25 61 -25 109 0 34 17 193 65 326 98 33 8 77 19 97 24 45 12 73 56 63 98
-15 60 -35 63 -146 24 -72 -26 -77 -26 -101 -11 -18 12 -27 29 -32 60 -6 40
-48 168 -82 246 -8 18 -14 45 -14 59 0 15 -6 34 -13 42 -8 9 -19 47 -26 85 -6
38 -18 87 -26 110 -17 48 -19 92 -5 101 6 3 10 15 10 26 0 13 7 19 21 19 40 0
120 33 139 58 26 32 25 38 -7 73 -30 32 -79 39 -100 15z m-203 -202 c0 -16
-16 -19 -25 -4 -8 13 4 32 16 25 5 -4 9 -13 9 -21z"/>
<path d="M7557 11732 c-9 -4 -33 -39 -53 -77 -20 -39 -47 -85 -60 -102 -14
-18 -32 -52 -40 -75 -8 -23 -23 -52 -33 -63 -10 -11 -22 -38 -26 -60 -4 -22
-13 -47 -21 -56 -9 -10 -17 -34 -20 -55 -2 -22 -11 -44 -19 -50 -8 -6 -15 -23
-15 -37 0 -13 -7 -27 -15 -31 -8 -3 -15 -11 -15 -18 0 -6 -8 -21 -19 -32 -10
-12 -26 -42 -36 -69 -27 -72 -55 -97 -108 -97 -51 0 -94 -27 -84 -53 10 -28
60 -46 196 -70 l131 -24 0 28 c0 17 -12 42 -30 62 -35 41 -37 57 -10 82 11 10
20 24 20 30 0 35 111 66 138 39 7 -8 24 -14 37 -14 62 0 105 -45 105 -110 0
-35 -23 -61 -80 -90 -22 -11 -40 -27 -40 -34 0 -19 56 -65 100 -84 43 -18 174
-19 195 -2 25 20 17 38 -24 59 -21 11 -49 37 -62 57 -19 31 -21 41 -11 68 11
32 26 204 43 491 5 88 12 188 15 222 4 46 1 74 -11 107 -16 42 -21 46 -67 55
-55 12 -56 12 -81 3z m18 -316 c13 -20 14 -37 5 -116 -6 -51 -8 -108 -4 -126
9 -49 -8 -64 -73 -64 -30 0 -63 5 -74 10 -27 15 -25 70 6 128 14 26 25 54 25
62 0 26 52 119 69 123 28 8 30 7 46 -17z"/>
<path d="M3795 11397 c-33 -13 -93 -44 -133 -70 -40 -26 -74 -47 -77 -47 -6 0
-165 -77 -205 -99 -19 -11 -52 -27 -73 -37 -23 -10 -39 -25 -43 -40 -11 -44 6
-112 42 -163 19 -28 34 -55 34 -60 0 -6 14 -26 30 -44 17 -19 30 -40 30 -46 0
-15 40 -14 41 2 3 41 -5 94 -16 107 -20 24 -55 110 -55 138 0 65 180 155 218
110 6 -7 27 -56 48 -108 21 -52 57 -123 81 -158 24 -35 51 -82 60 -105 8 -23
24 -49 34 -59 11 -9 19 -25 19 -35 0 -11 18 -49 40 -86 56 -92 55 -126 -5
-167 -25 -17 -45 -39 -45 -48 0 -10 -5 -23 -12 -30 -9 -9 -9 -18 0 -37 23 -51
86 -31 232 74 47 34 106 71 132 84 26 12 47 28 48 35 0 6 4 12 9 12 5 0 4 15
-2 35 -9 30 -15 35 -41 35 -17 -1 -42 -7 -56 -15 -44 -25 -76 -18 -121 25 -43
41 -86 110 -70 110 13 0 -36 86 -65 115 -13 13 -24 33 -24 43 0 10 -19 48 -42
83 -23 35 -65 108 -93 161 l-52 97 46 44 c54 53 80 67 118 67 38 0 53 -16 53
-58 0 -28 9 -44 49 -83 28 -27 55 -49 62 -49 7 0 20 -7 30 -16 22 -19 35 -13
43 22 6 21 -5 48 -50 127 -98 171 -106 176 -219 134z"/>
<path d="M8358 11382 c-18 -15 -58 -46 -88 -69 -41 -30 -65 -58 -90 -104 -18
-35 -55 -97 -82 -138 -26 -40 -48 -79 -48 -86 0 -7 -11 -46 -25 -86 -14 -42
-21 -77 -16 -83 5 -6 11 -44 13 -84 4 -56 13 -88 37 -134 17 -34 31 -68 31
-77 0 -27 64 -82 106 -92 52 -12 211 -11 219 1 3 5 23 14 44 20 28 7 46 21 65
50 24 37 35 44 61 41 6 0 28 22 50 50 29 38 38 59 37 86 -2 52 -11 73 -31 73
-10 0 -24 7 -31 15 -18 21 -35 5 -71 -67 -16 -32 -34 -58 -39 -58 -6 0 -30
-18 -53 -39 l-42 -39 -85 3 c-69 2 -95 7 -137 29 -29 15 -57 35 -63 46 -14 26
-12 103 4 180 23 107 151 356 193 375 12 5 28 20 35 33 31 59 166 56 238 -4
54 -46 77 -100 84 -197 4 -49 10 -96 13 -105 6 -15 5 -15 -10 -3 -9 7 -17 9
-17 3 0 -5 7 -15 15 -22 8 -7 15 -18 15 -26 0 -7 10 -16 22 -19 27 -9 45 13
99 120 22 44 49 97 61 119 32 57 29 122 -6 153 -25 21 -29 22 -48 9 -27 -19
-43 -12 -104 44 -61 58 -94 76 -176 95 -98 23 -142 20 -180 -13z"/>
<path d="M9212 10980 c-23 -16 -51 -49 -63 -72 -12 -24 -32 -56 -45 -71 -13
-16 -24 -37 -24 -47 0 -9 -7 -23 -15 -30 -19 -16 -19 -39 -1 -46 15 -6 96 41
96 55 0 5 20 34 46 65 36 45 51 56 75 56 41 0 96 -31 143 -78 49 -51 46 -64
-40 -162 -36 -41 -86 -109 -111 -151 -24 -42 -57 -89 -74 -105 -16 -15 -29
-35 -29 -44 0 -9 -11 -26 -24 -37 -13 -11 -38 -46 -57 -76 -19 -32 -47 -63
-65 -74 -32 -16 -34 -16 -81 5 -82 37 -153 15 -139 -42 7 -30 84 -85 196 -141
41 -20 89 -48 107 -61 17 -13 43 -28 58 -34 22 -8 30 -6 50 16 29 31 24 47
-37 105 -35 33 -39 42 -34 66 4 15 10 41 13 58 7 34 52 95 70 95 6 0 14 8 18
19 3 10 14 26 25 36 11 10 20 27 20 39 0 11 15 36 34 56 19 19 52 65 73 102
21 37 62 101 92 142 l54 74 51 -15 c70 -21 102 -41 122 -79 15 -28 16 -35 4
-49 -8 -10 -24 -21 -35 -25 -26 -10 -78 -143 -63 -158 6 -6 6 -17 -1 -30 -6
-10 -7 -22 -4 -26 13 -13 60 -5 75 12 38 42 148 228 148 249 0 32 -93 121
-182 173 -40 24 -105 69 -144 100 -38 31 -83 65 -100 76 -16 10 -47 33 -68 51
-49 41 -81 42 -134 3z"/>
<path d="M2711 10734 c-54 -48 -58 -70 -28 -131 14 -26 34 -76 45 -110 11 -34
32 -79 46 -100 14 -21 26 -49 26 -62 0 -14 13 -39 29 -56 16 -16 33 -43 39
-60 5 -16 15 -29 21 -27 7 1 10 -2 7 -7 -3 -5 1 -14 9 -21 8 -7 15 -21 15 -31
0 -10 9 -24 20 -31 11 -7 20 -20 20 -28 0 -24 26 -92 60 -159 l31 -61 -30 -54
c-34 -59 -39 -93 -15 -103 27 -10 79 22 179 114 l97 87 -23 19 c-18 15 -33 18
-65 13 -46 -6 -74 13 -74 52 0 11 -4 24 -10 27 -5 3 -10 15 -10 26 0 27 42 99
57 99 7 0 31 16 53 36 37 33 44 36 83 31 29 -4 49 -14 66 -33 21 -25 23 -34
17 -95 -8 -80 -1 -86 75 -62 50 16 139 88 139 111 0 7 9 21 21 33 43 43 0 75
-61 44 -47 -24 -116 -11 -135 25 -8 15 -40 50 -72 76 -32 27 -107 94 -168 149
-60 55 -136 120 -168 144 -33 24 -68 58 -79 77 -11 19 -24 34 -28 34 -5 0 -21
11 -37 23 -15 13 -40 27 -55 30 -14 4 -33 10 -41 13 -9 3 -32 -9 -56 -32z
m305 -304 c41 -39 89 -77 105 -85 16 -9 29 -24 29 -34 0 -24 -38 -79 -72 -104
-25 -19 -29 -19 -51 -4 -14 9 -35 38 -48 64 -12 26 -32 60 -45 75 -36 44 -58
112 -45 137 19 35 48 24 127 -49z"/>
<path d="M5965 10650 c-725 -41 -1410 -245 -2022 -602 -350 -205 -629 -422
-923 -717 -149 -150 -421 -463 -422 -487 -1 -4 26 -29 59 -56 l61 -48 78 97
c312 392 642 693 1044 955 621 405 1280 629 2024 689 214 17 676 6 871 -20
423 -57 800 -162 1180 -327 1191 -519 2069 -1529 2430 -2796 11 -38 24 -68 28
-68 16 0 147 42 147 47 0 3 -21 73 -46 157 -328 1086 -1056 2008 -2034 2576
-570 331 -1213 534 -1865 590 -169 14 -455 19 -610 10z"/>
<path d="M10052 10314 c-12 -8 -22 -24 -22 -35 0 -29 99 -131 120 -124 14 4
19 -2 23 -31 8 -46 -12 -72 -173 -229 -299 -291 -326 -315 -359 -315 -54 0
-116 44 -145 102 -24 47 -126 15 -126 -39 0 -9 14 -27 31 -42 41 -34 222 -227
320 -340 41 -48 80 -54 123 -20 43 34 35 69 -24 119 -84 70 -98 120 -43 155
14 10 92 83 172 164 81 80 181 175 223 211 68 58 80 65 122 66 25 1 46 -3 46
-8 0 -6 19 -28 41 -50 28 -28 53 -42 78 -45 34 -5 37 -3 53 32 12 28 14 44 7
65 -11 30 -48 47 -60 28 -4 -7 -9 4 -11 23 -2 26 -8 35 -24 37 -16 2 -20 8
-16 27 3 20 1 23 -17 18 -16 -4 -21 -1 -21 15 0 12 -18 38 -41 59 -23 21 -72
68 -108 106 -61 60 -71 67 -107 67 -22 0 -50 -7 -62 -16z m172 -213 c3 -5 -1
-14 -8 -20 -16 -13 -32 2 -21 19 8 12 22 13 29 1z"/>
<path d="M2106 10173 c-17 -9 -26 -22 -26 -37 0 -16 -31 -55 -100 -126 -68
-69 -100 -109 -100 -125 0 -12 -7 -28 -15 -35 -11 -9 -15 -33 -15 -91 0 -66 3
-82 20 -99 11 -11 20 -26 20 -33 0 -21 40 -54 91 -75 60 -26 129 -25 202 4 64
25 97 49 223 158 43 38 126 63 167 52 12 -3 41 -23 65 -44 40 -34 43 -41 43
-87 0 -84 -20 -196 -43 -232 -11 -19 -43 -52 -70 -74 -42 -33 -57 -39 -98 -39
-27 0 -52 -4 -55 -10 -12 -20 -45 -10 -84 25 -44 40 -98 65 -140 65 -65 0 -49
-22 120 -171 93 -82 114 -93 170 -87 27 2 34 7 35 26 2 30 27 57 104 108 71
47 87 68 141 194 27 63 35 90 28 103 -7 12 -6 22 4 32 11 11 13 25 6 62 -13
71 -17 77 -33 64 -11 -9 -16 -9 -22 0 -4 7 0 17 9 24 13 9 8 19 -43 71 -32 34
-64 62 -71 63 -127 21 -245 1 -276 -46 -9 -13 -29 -31 -46 -39 -16 -9 -50 -37
-76 -63 -37 -39 -56 -51 -98 -60 -61 -13 -93 -4 -136 37 -46 44 -48 54 -25
123 28 84 42 105 94 135 23 14 48 32 55 40 16 19 93 11 160 -18 50 -21 100
-21 107 0 4 12 -111 132 -126 132 -3 0 -15 9 -27 20 -11 11 -42 30 -67 43 -41
21 -49 22 -72 10z"/>
<path d="M6875 9785 c-81 -116 -164 -231 -182 -257 l-35 -48 -51 6 c-383 43
-567 59 -563 47 3 -7 86 -120 185 -252 l181 -240 -126 -281 c-69 -155 -124
-284 -121 -286 3 -3 132 38 287 90 155 53 288 96 295 96 7 0 110 -87 227 -192
117 -106 222 -200 232 -208 19 -15 19 -7 12 300 l-7 315 270 155 c149 85 271
157 271 160 0 3 -71 27 -158 53 -86 27 -220 68 -297 93 l-141 44 -47 227 c-27
126 -56 264 -66 308 l-17 80 -149 -210z"/>
<path d="M10645 9499 c-104 -24 -245 -83 -265 -110 -3 -4 -33 -27 -67 -52 -33
-25 -64 -54 -67 -64 -3 -10 -18 -24 -34 -31 -36 -16 -142 -149 -142 -178 0
-13 -5 -26 -11 -30 -6 -3 -9 -19 -5 -35 3 -16 1 -31 -5 -35 -8 -4 -9 -30 -4
-78 5 -54 15 -86 41 -133 34 -61 43 -70 115 -117 68 -44 168 -66 139 -30 -12
13 -6 34 9 34 5 0 11 -9 14 -20 4 -14 14 -20 35 -20 17 0 33 -4 36 -9 4 -5 29
0 59 11 28 11 68 24 87 30 19 5 42 16 51 24 9 8 38 21 65 30 38 13 68 36 139
108 50 50 102 99 117 108 36 24 98 192 98 268 0 53 -38 123 -98 180 -32 30
-66 67 -75 83 -10 15 -24 27 -31 27 -7 0 -19 6 -25 14 -6 7 -34 16 -61 20 -28
4 -56 8 -63 10 -6 2 -30 0 -52 -5z m112 -151 c34 -8 48 -19 72 -57 51 -79 81
-153 81 -200 0 -38 -7 -52 -56 -113 -76 -95 -133 -145 -217 -195 -104 -62
-171 -85 -245 -84 -56 0 -68 4 -98 31 -19 16 -39 30 -44 30 -5 0 -19 18 -30
40 -28 55 -31 201 -5 230 9 10 15 27 13 37 -4 24 28 90 50 102 10 5 34 25 54
43 20 19 51 42 70 52 18 9 40 20 48 25 8 5 51 25 94 44 84 38 113 40 213 15z"/>
<path d="M1300 8864 c-8 -3 -50 -19 -93 -36 -59 -23 -88 -29 -121 -26 l-43 5
-6 -83 c-3 -47 -13 -97 -23 -116 l-17 -32 34 -28 c72 -60 170 -88 313 -88 116
0 194 -15 223 -42 22 -21 36 -23 131 -25 103 -2 153 -12 261 -51 l43 -16 -7
-95 c-23 -329 -88 -709 -229 -1330 -66 -289 -152 -705 -187 -906 -15 -91 -44
-168 -77 -207 -77 -91 -219 -79 -613 51 l-206 68 -100 -47 c-55 -26 -118 -64
-141 -85 -36 -32 -42 -43 -42 -77 0 -52 19 -87 79 -140 89 -80 175 -108 336
-108 44 0 125 -7 180 -15 55 -8 143 -15 195 -15 127 0 207 -14 317 -56 116
-43 297 -91 523 -139 96 -21 213 -53 260 -71 142 -56 152 -56 237 12 48 39 96
53 109 33 5 -8 9 -43 9 -79 l0 -64 102 -14 c56 -8 114 -11 128 -8 35 9 110 80
142 133 35 60 32 104 -13 203 -44 96 -72 117 -199 149 -44 11 -132 38 -197 61
-64 22 -126 40 -137 40 -12 0 -40 -12 -62 -27 -72 -47 -212 -42 -316 14 -125
65 -151 136 -118 318 8 44 14 139 15 211 0 72 3 166 7 208 5 68 9 79 28 86 17
6 26 22 35 62 6 29 40 141 75 248 83 253 95 310 95 434 0 110 7 130 74 226 20
28 29 52 28 73 -8 130 -6 284 5 302 29 50 55 160 93 404 l42 265 -17 89 c-10
51 -15 105 -11 128 l6 39 -35 0 c-19 0 -82 16 -139 35 -117 39 -163 42 -279
20 -105 -20 -167 -19 -197 3 -19 13 -45 17 -110 17 -77 0 -95 5 -189 43 -100
41 -170 57 -201 46z"/>
<path d="M11269 8621 c-17 -14 -25 -32 -29 -72 l-5 -54 -75 -36 c-41 -21 -140
-67 -220 -104 -80 -36 -172 -79 -206 -96 -34 -16 -67 -29 -75 -29 -8 -1 -31
-7 -51 -14 -43 -16 -48 -13 -78 42 -26 46 -60 63 -85 42 -16 -14 -21 -105 -6
-114 5 -3 12 -18 16 -33 11 -45 73 -164 92 -179 24 -18 37 -17 64 5 22 18 23
19 5 45 -31 48 10 116 68 116 46 0 157 73 148 98 -5 15 14 16 23 2 12 -20 38
-13 160 40 128 56 165 63 165 34 0 -19 -251 -268 -327 -325 -29 -22 -58 -49
-64 -61 -6 -12 -37 -48 -69 -80 -32 -33 -63 -71 -71 -84 -19 -36 -2 -75 43
-97 32 -16 40 -16 70 -4 18 8 39 21 47 30 7 10 20 17 27 17 8 0 31 11 52 24
20 14 73 35 117 47 44 12 97 30 117 40 21 11 45 19 54 19 9 0 28 7 42 15 28
15 116 51 219 91 l62 23 22 -30 c13 -19 27 -28 36 -25 11 4 13 2 9 -9 -7 -18
24 -21 42 -3 15 15 16 55 2 63 -6 4 -8 15 -5 25 9 28 -22 149 -51 197 -29 51
-62 63 -100 38 -27 -18 -27 -20 -9 -111 6 -29 3 -33 -42 -60 -26 -16 -68 -38
-93 -49 -25 -10 -56 -29 -71 -42 -14 -13 -34 -23 -45 -23 -11 0 -25 -5 -31
-11 -5 -5 -24 -12 -41 -14 -17 -2 -53 -19 -79 -37 -27 -18 -69 -40 -93 -48
-25 -7 -54 -20 -65 -27 -26 -17 -75 -17 -75 0 0 8 11 20 25 27 14 7 25 19 25
26 0 19 59 84 76 84 18 0 85 66 109 107 10 17 35 41 56 53 21 11 44 29 51 39
7 9 36 32 63 51 28 19 52 38 54 43 2 6 40 44 83 86 80 76 80 77 80 127 -1 55
-30 145 -58 175 -22 25 -75 25 -105 0z m-753 -428 c-10 -10 -19 5 -10 18 6 11
8 11 12 0 2 -7 1 -15 -2 -18z"/>
<path d="M427 8447 c-9 -23 -36 -100 -62 -172 -232 -645 -365 -1400 -365
-2082 l0 -123 78 0 78 0 12 293 c27 693 134 1254 359 1885 36 101 64 184 62
186 -2 1 -36 14 -76 29 l-71 26 -15 -42z"/>
<path d="M4510 8246 c0 -34 -16 -43 -89 -49 -57 -5 -68 -9 -105 -45 -22 -22
-73 -58 -113 -81 -91 -52 -103 -65 -103 -106 0 -54 -8 -65 -50 -65 -59 0 -78
-23 -91 -110 -20 -140 -25 -153 -179 -445 -81 -154 -106 -227 -119 -355 -6
-56 -21 -120 -35 -155 -13 -33 -38 -130 -56 -215 -31 -148 -33 -165 -32 -365
l2 -210 30 -59 c16 -32 30 -63 30 -69 0 -5 -14 -25 -31 -45 -28 -32 -31 -40
-27 -86 3 -34 22 -89 56 -163 43 -91 52 -121 52 -166 0 -100 42 -175 128 -229
29 -18 67 -42 84 -53 22 -14 34 -31 39 -55 9 -42 54 -83 159 -144 202 -117
504 -225 628 -226 143 0 353 80 550 213 l74 49 -21 22 c-32 34 -27 49 12 42
96 -18 103 -18 116 -2 8 9 14 33 15 54 1 35 -1 37 -29 35 -16 -1 -42 -4 -57
-8 -41 -11 -50 21 -14 52 37 31 102 31 167 -2 l49 -24 6 25 c4 14 21 36 39 50
48 36 63 64 74 134 9 52 17 69 52 107 64 69 181 346 165 389 -3 9 -20 21 -36
27 -29 11 -40 39 -20 52 5 3 28 -4 51 -15 51 -26 86 -20 100 18 9 22 6 36 -15
80 -14 29 -26 62 -26 73 0 11 19 42 43 70 57 66 63 98 26 152 -16 23 -29 48
-29 55 0 7 21 32 47 56 43 40 46 48 51 101 4 46 -1 76 -28 155 -36 108 -38 90
23 204 15 27 27 64 27 82 0 18 -22 89 -50 157 -58 145 -67 191 -50 283 11 66
10 70 -9 83 -15 10 -21 24 -21 52 0 30 -7 44 -32 68 -18 17 -36 31 -40 31 -4
0 -12 8 -17 19 -8 15 -4 28 19 62 45 67 41 88 -32 150 -69 57 -121 83 -185 94
-29 4 -44 13 -48 26 -13 39 -269 187 -395 228 -23 7 -97 10 -205 8 -138 -2
-185 -7 -249 -25 -74 -21 -82 -21 -149 -7 -38 8 -80 21 -93 30 -31 20 -34 19
-34 -9z m690 -251 c0 -41 125 -130 231 -164 35 -11 37 -14 41 -65 6 -70 71
-186 152 -270 l59 -61 54 -210 c62 -240 74 -340 49 -399 -9 -22 -30 -98 -46
-169 -24 -104 -30 -149 -28 -228 2 -94 0 -101 -24 -127 -14 -15 -36 -58 -48
-97 -30 -92 -54 -139 -84 -162 -20 -16 -27 -37 -41 -117 -28 -168 -71 -276
-109 -276 -33 0 -86 -103 -86 -165 0 -16 -6 -25 -16 -25 -56 0 -245 -143 -258
-196 -6 -21 -10 -24 -29 -17 -27 10 -154 9 -307 -1 l-115 -8 -125 47 c-69 26
-173 62 -231 81 -103 33 -107 36 -170 102 -130 138 -166 185 -183 244 -13 46
-23 60 -52 78 l-37 21 7 77 c3 42 9 90 13 106 5 26 4 28 -13 22 -46 -18 -74
-19 -74 -2 0 9 8 16 19 16 51 0 70 68 92 322 13 164 5 216 -46 275 l-33 39 38
21 c33 20 38 28 49 80 10 52 18 65 64 109 41 38 56 61 65 96 19 73 15 104 -23
176 -22 41 -33 75 -29 85 8 22 16 21 61 -3 21 -11 43 -20 49 -20 18 0 40 32
53 80 20 71 85 184 177 307 92 122 122 179 105 196 -18 18 -13 23 54 52 65 27
95 59 95 101 0 11 5 14 18 9 9 -4 41 -9 69 -12 53 -6 53 -6 59 25 6 28 8 30
37 21 44 -12 173 -10 287 5 139 19 210 19 210 1z m788 -1441 c44 -31 13 -82
-42 -68 -38 9 -51 30 -38 59 13 29 46 33 80 9z m-931 -1490 c20 -5 20 -8 9
-46 -16 -57 -31 -64 -105 -48 -34 7 -57 16 -51 20 6 4 10 12 8 18 -2 6 12 22
31 36 34 26 65 31 108 20z"/>
<path d="M7478 7704 c-4 -34 -18 -41 -92 -49 -49 -6 -64 -12 -90 -40 -17 -18
-70 -56 -118 -84 -48 -28 -90 -56 -93 -62 -4 -5 -10 -31 -13 -57 -7 -43 -10
-47 -37 -50 -68 -6 -83 -20 -94 -81 -31 -167 -43 -198 -150 -406 -127 -247
-138 -275 -157 -420 -7 -60 -24 -139 -38 -175 -13 -36 -38 -132 -55 -215 -28
-139 -31 -165 -31 -351 l0 -201 35 -72 35 -72 -30 -28 c-18 -16 -33 -41 -36
-62 -7 -39 21 -130 68 -223 23 -45 33 -83 39 -145 13 -123 64 -198 172 -252
57 -29 77 -48 77 -75 0 -63 193 -183 465 -290 143 -56 251 -84 321 -84 148 0
357 78 544 202 41 28 77 52 79 54 2 1 -6 15 -18 30 -29 37 -14 51 37 36 85
-26 112 -10 112 63 0 41 9 39 -90 19 -27 -6 -30 -4 -30 19 0 15 9 32 22 41 41
29 110 19 211 -32 4 -2 7 5 7 15 0 10 20 39 45 63 46 45 58 72 70 149 6 33 18
56 51 91 47 50 97 149 139 274 33 99 31 127 -12 140 -34 9 -41 24 -22 43 9 9
22 7 51 -8 50 -25 78 -21 97 13 15 25 14 31 -12 83 -15 30 -27 64 -27 75 0 11
17 39 39 63 69 75 75 104 36 157 -34 46 -33 81 4 102 69 39 82 140 36 268 -15
41 -27 84 -27 97 0 12 14 46 32 75 51 82 52 133 2 249 -21 52 -45 111 -52 133
-15 45 -15 156 -1 205 9 30 8 36 -9 48 -14 10 -20 26 -20 50 0 30 -8 43 -50
81 -27 25 -50 50 -50 56 0 6 11 28 24 47 47 69 45 80 -26 141 -77 67 -114 87
-178 95 -37 4 -51 11 -56 25 -12 41 -223 168 -365 222 -60 22 -79 24 -225 24
-139 0 -170 -3 -247 -25 -77 -22 -95 -24 -146 -15 -48 9 -100 27 -143 50 -4 2
-8 -9 -10 -24z m702 -264 c22 -52 122 -119 225 -150 39 -12 40 -13 41 -59 1
-34 11 -67 37 -117 42 -78 131 -194 151 -194 15 0 20 -15 81 -250 58 -221 66
-320 37 -411 -12 -35 -33 -116 -47 -179 -23 -98 -26 -128 -20 -202 7 -85 6
-88 -19 -112 -17 -15 -37 -54 -52 -102 -33 -101 -59 -150 -88 -169 -19 -13
-25 -30 -36 -103 -14 -96 -40 -194 -62 -236 -8 -15 -32 -37 -53 -49 -30 -17
-44 -34 -57 -71 -10 -26 -20 -62 -21 -78 -2 -26 -9 -33 -49 -48 -92 -35 -211
-134 -231 -193 -5 -14 -12 -17 -29 -10 -28 10 -133 9 -298 -1 l-125 -8 -105
39 c-58 22 -162 59 -231 82 -124 41 -128 43 -185 104 -129 137 -171 194 -184
248 -10 41 -19 55 -46 71 -42 25 -50 54 -35 133 17 97 16 106 -15 95 -36 -14
-64 -12 -64 4 0 7 13 16 29 19 56 12 79 110 83 363 3 171 -2 194 -55 245 -18
18 -19 23 -7 27 35 13 67 58 74 106 7 42 15 56 62 100 47 45 56 59 71 118 l17
67 -37 71 c-54 104 -48 140 19 101 65 -38 82 -29 108 59 21 75 90 193 191 328
88 117 105 153 88 182 -9 13 -2 19 48 39 60 23 99 59 99 92 0 16 8 18 73 16
71 -2 72 -2 75 25 3 25 5 26 35 17 44 -13 205 -10 312 6 50 7 111 13 136 14
43 1 48 -1 59 -29z m774 -1421 c30 -14 39 -44 19 -64 -29 -30 -93 -11 -93 28
0 43 28 56 74 36z m-926 -1495 c19 -6 22 -11 17 -33 -17 -69 -47 -83 -129 -60
-29 8 -36 13 -25 20 12 7 12 9 0 9 -19 0 4 27 44 52 32 19 55 22 93 12z"/>
<path d="M12443 7665 c-18 -8 -53 -43 -85 -84 -61 -82 -85 -94 -218 -111 -116
-16 -156 -36 -242 -123 -94 -97 -153 -141 -252 -188 -173 -83 -552 -181 -686
-178 -42 1 -79 -4 -104 -16 -51 -22 -85 -15 -211 42 -127 57 -181 63 -324 33
-127 -26 -247 -71 -304 -114 -29 -22 -56 -58 -88 -117 -25 -47 -84 -144 -131
-215 -118 -177 -158 -299 -158 -477 0 -92 23 -246 43 -282 21 -40 183 -204
213 -216 17 -7 91 -13 179 -15 83 -1 173 -5 200 -8 99 -12 187 26 353 151 45
35 110 77 145 94 70 36 82 48 99 102 6 21 19 42 29 48 29 15 65 107 88 219 13
63 34 130 53 168 l31 62 -16 75 c-18 80 -14 131 12 144 9 5 88 16 176 25 161
16 194 24 383 90 91 32 230 62 240 51 9 -9 -27 -56 -89 -113 -51 -47 -70 -72
-75 -98 -5 -27 -27 -55 -96 -122 -49 -47 -96 -100 -104 -117 -8 -16 -62 -88
-120 -160 -144 -177 -195 -247 -239 -332 -28 -54 -51 -83 -92 -115 -31 -23
-81 -76 -112 -117 -31 -41 -76 -90 -101 -109 -114 -85 -130 -103 -175 -191
-35 -71 -57 -99 -110 -146 -48 -43 -84 -88 -137 -174 -51 -82 -102 -147 -174
-222 -57 -58 -113 -127 -127 -156 -18 -35 -36 -54 -57 -63 -18 -7 -44 -32 -58
-54 -15 -23 -52 -69 -84 -103 -34 -38 -101 -136 -165 -245 -88 -148 -123 -198
-190 -267 -46 -47 -83 -88 -83 -92 0 -8 -132 -118 -169 -141 -12 -7 -21 -19
-21 -26 0 -30 -39 -83 -134 -183 -114 -119 -176 -217 -176 -276 0 -28 12 -58
48 -115 44 -71 50 -76 95 -87 93 -21 123 -15 222 50 50 33 67 52 89 98 77 157
241 408 329 507 37 40 59 75 67 105 18 69 53 120 118 172 67 54 110 103 140
162 11 22 38 54 59 71 28 23 44 47 56 84 10 29 33 70 52 91 19 22 35 45 35 53
0 7 19 33 43 57 23 25 58 71 77 104 19 32 69 95 112 140 42 45 101 121 132
168 70 105 123 155 217 202 151 77 179 109 179 207 0 45 6 62 40 113 22 32 42
73 46 90 3 16 26 51 50 77 24 26 54 67 66 92 12 25 29 48 39 51 9 3 42 44 73
91 37 56 73 96 104 117 86 59 154 131 255 272 56 77 130 167 166 200 165 154
187 179 226 263 21 45 42 82 46 82 4 0 53 43 109 94 56 52 109 97 118 100 9 3
28 22 42 42 13 21 61 68 105 106 188 163 205 180 205 199 0 11 14 45 30 76 38
70 38 95 -1 171 -35 71 -113 147 -167 162 -51 14 -121 12 -159 -5z m-1785
-1028 c43 -20 48 -26 59 -72 38 -167 -15 -366 -127 -474 -26 -25 -51 -57 -55
-71 -4 -14 -28 -46 -53 -72 -39 -41 -52 -48 -84 -48 -21 0 -55 -7 -75 -15
-116 -49 -196 -48 -260 1 -52 39 -73 91 -73 178 0 130 40 226 149 351 28 33
63 83 77 111 21 43 35 57 84 83 119 64 260 75 358 28z"/>
<path d="M12218 6283 c6 -404 -16 -706 -78 -1083 -16 -96 -28 -176 -26 -177 2
-2 37 -9 79 -17 l76 -13 5 26 c15 70 57 351 70 471 28 248 36 412 36 743 l0
327 -82 0 -83 0 3 -277z"/>
<path d="M157 5191 c-62 -12 -76 -18 -73 -30 3 -9 17 -77 31 -151 150 -766
460 -1530 889 -2190 598 -922 1407 -1648 2391 -2145 1156 -585 2417 -791 3696
-605 1507 220 2875 985 3856 2160 183 218 382 493 509 700 105 172 243 425
236 431 -17 15 -132 73 -135 69 -3 -3 -46 -79 -97 -169 -384 -686 -892 -1285
-1505 -1777 -1007 -808 -2259 -1271 -3547 -1312 -776 -25 -1465 77 -2178 323
-1121 387 -2102 1092 -2817 2025 -567 740 -961 1614 -1138 2520 -14 74 -29
142 -33 150 -6 14 -15 14 -85 1z"/>
<path d="M11339 5147 c-112 -38 -175 -84 -346 -252 -138 -135 -166 -167 -177
-205 -8 -25 -37 -91 -66 -146 l-53 -102 2 -98 c1 -55 -4 -129 -10 -165 l-12
-66 48 -92 c64 -123 151 -214 255 -264 101 -50 157 -55 299 -28 62 12 132 21
155 20 83 -5 260 112 306 202 10 20 30 43 44 52 13 9 46 47 72 84 26 38 58 80
72 95 18 20 30 55 48 140 57 271 38 468 -62 638 -50 86 -89 127 -127 135 -18
4 -80 22 -139 41 -131 42 -211 44 -309 11z m293 -296 c29 -22 58 -45 65 -50
23 -20 56 -127 60 -201 4 -73 3 -78 -40 -166 -25 -50 -48 -104 -51 -121 -5
-20 -28 -47 -74 -85 -37 -31 -76 -72 -87 -92 -21 -38 -50 -54 -165 -87 -71
-21 -174 -25 -232 -9 -75 21 -136 112 -145 219 -6 67 24 192 62 257 14 23 58
78 99 123 41 45 78 90 81 101 16 52 259 163 337 156 25 -3 56 -18 90 -45z"/>
<path d="M1905 4888 c-33 -11 -61 -22 -62 -23 -5 -3 74 -228 122 -350 59 -151
202 -446 285 -590 324 -562 773 -1058 1295 -1430 377 -270 842 -502 1275 -639
752 -237 1557 -275 2326 -110 575 122 1127 359 1614 692 124 85 369 271 390
298 9 10 2 26 -36 74 -26 33 -49 60 -51 60 -2 0 -38 -28 -81 -63 -583 -478
-1274 -797 -2012 -931 -246 -44 -383 -57 -682 -63 -449 -9 -760 25 -1168 127
-1048 262 -1971 915 -2577 1820 -206 309 -384 671 -510 1037 -26 78 -43 113
-53 112 -8 0 -42 -10 -75 -21z"/>
<path d="M1325 4654 c-155 -36 -253 -68 -291 -94 -22 -16 -53 -32 -68 -36 -14
-3 -45 -23 -67 -43 -162 -147 -180 -174 -187 -286 -4 -64 -1 -81 28 -153 27
-67 40 -86 81 -119 26 -21 48 -42 49 -46 0 -4 -9 -21 -21 -36 -26 -36 -21 -71
13 -91 22 -12 33 -12 55 -3 65 27 193 73 257 93 l68 21 35 -27 c29 -22 40 -25
66 -17 41 11 52 42 43 126 -7 61 -12 72 -57 127 -28 32 -59 62 -70 65 -26 9
-67 -19 -73 -48 -2 -12 -8 -40 -13 -62 l-8 -40 -100 3 c-151 5 -196 37 -221
156 -11 53 -10 62 5 85 10 14 30 45 45 69 15 23 39 47 54 53 15 6 50 25 77 44
31 21 71 38 108 44 31 6 92 26 135 44 67 30 84 33 127 27 28 -3 64 -14 82 -23
18 -9 41 -17 53 -17 11 0 20 -7 20 -15 0 -9 7 -30 16 -46 8 -17 17 -53 19 -80
6 -65 -29 -137 -79 -167 -39 -23 -96 -96 -96 -123 0 -37 12 -49 49 -49 52 0
132 27 148 50 8 11 33 24 56 30 54 15 115 54 129 85 9 21 7 29 -21 60 -17 20
-31 41 -32 48 0 7 -2 44 -2 83 -2 64 -6 77 -47 148 -25 43 -50 78 -55 78 -6 0
-23 11 -38 24 -15 13 -47 28 -70 34 -23 6 -62 18 -87 26 -25 8 -47 14 -50 13
-3 -1 -32 -8 -65 -15z"/>
<path d="M5756 3885 l-168 -265 -52 5 c-78 8 -568 36 -572 33 -1 -2 87 -112
196 -244 l199 -242 -114 -288 c-62 -159 -112 -291 -110 -293 2 -1 131 47 287
108 156 61 287 111 292 111 4 0 113 -87 242 -192 129 -106 239 -194 243 -196
5 -1 7 8 5 20 -6 41 -36 599 -33 603 2 1 119 76 259 166 286 182 265 168 259
173 -2 2 -137 39 -299 81 -162 42 -297 78 -299 80 -2 2 -36 131 -77 287 -40
156 -77 291 -81 300 -6 13 -48 -46 -177 -247z"/>
<path d="M1935 3731 c-3 -11 0 -40 6 -66 l12 -46 -44 -46 c-24 -24 -57 -52
-74 -60 -16 -9 -70 -46 -120 -83 -49 -37 -110 -78 -135 -90 -60 -31 -227 -185
-252 -234 -17 -33 -19 -51 -14 -104 4 -40 15 -76 27 -93 11 -16 25 -43 31 -61
15 -45 24 -54 89 -98 44 -29 72 -39 118 -45 35 -4 67 -3 74 2 6 5 31 10 54 11
50 1 92 21 125 60 13 16 36 32 50 35 23 6 96 60 198 145 19 16 50 37 68 46 18
9 37 28 42 42 5 13 13 23 17 22 5 -1 27 2 51 6 32 6 47 4 60 -7 9 -8 38 -24
64 -37 39 -19 50 -21 63 -10 22 19 18 70 -10 115 -13 22 -25 50 -25 62 0 12
-18 42 -39 67 -22 25 -48 59 -57 75 -35 60 -95 65 -133 12 -20 -27 -20 -32 -6
-70 20 -59 10 -97 -34 -127 -20 -13 -64 -45 -98 -71 -34 -27 -75 -57 -92 -68
-17 -11 -71 -47 -119 -79 -152 -104 -156 -106 -198 -106 -21 0 -54 9 -72 20
-18 11 -46 20 -62 20 l-30 0 0 83 c0 108 17 153 66 183 22 13 59 44 84 69 25
25 66 60 92 78 25 18 64 45 85 60 21 15 66 46 101 69 68 44 58 43 204 22 55
-8 78 5 78 43 0 51 -56 144 -141 234 -42 45 -93 54 -104 20z"/>
<path d="M10080 3251 c-8 -5 -39 -14 -68 -20 -70 -15 -105 -33 -122 -66 -8
-15 -27 -33 -42 -41 -15 -8 -28 -21 -28 -29 0 -7 -11 -22 -25 -33 -37 -29
-114 -127 -130 -167 -27 -64 -14 -132 30 -161 17 -10 27 -9 69 12 28 13 56 24
63 24 26 0 192 -119 348 -251 33 -27 91 -71 128 -95 38 -25 71 -52 74 -60 3
-8 -4 -36 -15 -62 -26 -58 -16 -79 50 -104 l45 -17 92 101 c50 55 91 107 91
114 0 8 17 33 39 57 48 52 84 122 76 147 -3 10 1 33 10 49 39 77 -35 248 -169
389 -22 23 -44 42 -49 42 -5 0 -24 13 -43 29 -43 38 -188 117 -239 129 -61 16
-168 23 -185 13z m113 -146 c20 -8 50 -15 66 -15 20 0 37 -9 53 -29 14 -15 41
-34 62 -41 60 -19 195 -167 219 -240 16 -47 8 -146 -17 -202 -18 -41 -33 -58
-66 -77 -53 -30 -62 -26 -167 71 -117 106 -256 226 -329 282 -35 27 -64 55
-64 63 0 7 20 43 44 80 34 51 56 72 98 93 65 34 58 33 101 15z"/>
<path d="M2803 2667 c-39 -32 -128 -87 -140 -87 -6 0 -30 -17 -54 -38 -24 -21
-58 -44 -75 -51 -16 -6 -38 -26 -48 -42 -10 -17 -30 -35 -45 -40 -14 -5 -35
-23 -46 -39 -11 -17 -26 -30 -32 -30 -7 0 -18 -9 -25 -20 -7 -11 -33 -30 -58
-42 -25 -12 -71 -42 -102 -66 -62 -48 -65 -48 -150 -16 -45 18 -47 18 -67 0
-12 -11 -21 -26 -21 -34 0 -32 44 -82 123 -142 45 -35 94 -75 110 -89 26 -24
27 -24 41 -5 21 28 29 80 16 105 -15 26 -7 47 22 59 13 6 31 15 40 22 23 16
83 -5 118 -41 14 -14 38 -36 53 -48 29 -25 33 -43 16 -91 -12 -35 -49 -52
-116 -52 -75 0 -79 -46 -11 -142 21 -30 102 -88 123 -88 8 0 17 -4 20 -10 3
-5 22 -10 40 -10 29 0 36 4 41 26 5 18 0 34 -14 54 -12 16 -25 47 -28 70 -6
38 -4 44 28 78 20 20 54 69 77 107 22 39 68 113 101 165 33 52 78 129 99 170
22 41 51 86 65 99 33 31 72 113 79 168 5 40 3 45 -31 71 -75 59 -105 65 -149
29z m-99 -263 c26 -10 19 -29 -38 -117 -29 -46 -58 -96 -63 -113 -12 -36 -40
-35 -95 1 -48 32 -48 55 -2 92 20 15 53 44 73 64 20 20 52 46 71 58 41 24 34
23 54 15z"/>
<path d="M9232 2467 c-26 -24 -68 -56 -93 -71 -25 -14 -54 -35 -65 -47 -10
-11 -50 -43 -89 -72 -108 -79 -200 -164 -221 -203 l-19 -35 28 -25 c33 -28 47
-30 88 -8 29 14 32 14 75 -11 24 -14 44 -32 44 -39 0 -7 9 -21 21 -32 12 -10
28 -36 36 -57 9 -21 23 -42 33 -47 9 -5 36 -40 59 -77 68 -109 109 -167 135
-188 14 -11 36 -40 49 -65 22 -43 23 -47 9 -91 -17 -54 -10 -94 20 -110 38
-20 88 5 182 90 48 44 126 111 174 148 48 37 98 79 112 93 14 14 43 39 65 56
36 28 39 34 38 80 -1 86 -89 246 -154 280 -38 19 -73 8 -90 -30 -10 -20 -7
-33 11 -72 13 -26 35 -61 50 -78 57 -66 44 -108 -56 -177 -32 -22 -72 -54 -89
-69 -51 -47 -106 -80 -136 -80 -23 0 -32 7 -48 38 -11 20 -42 65 -70 100 -58
72 -57 76 7 134 62 56 76 56 128 8 34 -31 51 -40 67 -36 12 3 25 6 30 6 11 0
8 59 -4 83 -7 12 -38 50 -70 84 -33 34 -59 67 -59 75 0 7 -16 29 -35 48 -19
19 -35 39 -35 44 0 5 -12 22 -26 37 l-27 28 -49 -25 -49 -25 41 -51 c61 -77
61 -90 5 -141 -60 -52 -73 -60 -90 -53 -8 3 -46 48 -86 101 -68 93 -70 97 -59
126 7 17 28 38 46 47 18 9 88 66 155 126 99 88 123 106 130 93 19 -32 108
-131 131 -143 34 -20 53 -17 88 13 27 22 29 28 16 35 -9 5 -16 18 -16 28 0 11
-13 29 -30 42 -16 12 -32 30 -36 40 -3 10 -11 18 -18 18 -7 0 -27 18 -44 40
-21 25 -46 43 -70 50 -67 18 -90 13 -140 -33z"/>
<path d="M3448 2153 c-30 -34 -31 -60 -4 -84 53 -46 25 -124 -126 -361 -58
-89 -111 -179 -118 -198 -7 -19 -31 -59 -52 -87 -38 -52 -38 -52 -86 -48 -26
3 -61 8 -78 11 -58 11 -86 -52 -41 -94 12 -11 48 -30 79 -42 31 -11 68 -30 81
-41 73 -57 171 -75 207 -39 32 32 30 42 -42 149 -10 14 -18 32 -18 40 0 26
124 201 147 207 14 4 33 -2 50 -13 15 -11 50 -30 76 -43 26 -13 53 -30 59 -38
29 -34 3 -149 -47 -212 -7 -8 -25 -54 -39 -101 -25 -80 -26 -89 -13 -120 33
-77 124 -138 187 -126 30 7 81 49 99 84 19 37 13 77 -15 104 l-25 24 -41 -24
-41 -23 5 48 c3 27 17 77 33 112 15 34 33 90 39 125 10 58 14 63 51 84 22 12
54 22 72 22 18 1 44 12 61 26 38 32 102 156 95 184 -3 12 -1 21 4 21 15 0 2
152 -15 179 -26 39 -142 129 -176 137 -42 9 -86 31 -116 59 -31 29 -179 95
-213 95 -13 0 -31 -8 -39 -17z m242 -232 c101 -46 143 -77 172 -129 25 -46 28
-56 19 -90 -8 -28 -21 -44 -53 -63 -62 -38 -82 -42 -133 -25 -25 9 -59 16 -75
16 -20 0 -35 8 -50 30 -12 16 -33 33 -48 36 -63 15 -68 47 -17 103 19 21 42
56 51 77 24 59 34 67 74 61 19 -3 46 -10 60 -16z"/>
<path d="M8275 1855 c-22 -14 -62 -32 -90 -41 -47 -16 -110 -44 -331 -150
-140 -67 -181 -116 -134 -159 14 -13 34 -18 67 -16 40 1 51 -3 80 -31 18 -17
33 -39 33 -47 0 -9 7 -25 15 -35 8 -11 15 -30 15 -41 0 -12 11 -42 24 -67 13
-25 32 -72 42 -104 10 -33 23 -66 30 -74 6 -8 14 -31 18 -51 4 -20 20 -55 36
-78 17 -22 30 -50 30 -62 0 -11 4 -29 10 -39 7 -14 2 -33 -22 -79 -30 -58 -30
-61 -14 -86 29 -45 87 -37 197 26 48 27 89 49 93 49 3 0 84 38 180 85 218 107
225 114 208 224 -6 42 -18 99 -27 128 -18 59 -72 123 -104 123 -30 0 -75 -46
-66 -68 4 -9 12 -35 17 -57 5 -22 17 -54 27 -71 21 -34 18 -78 -6 -106 -8 -9
-40 -26 -71 -39 -31 -12 -86 -37 -122 -55 -36 -17 -85 -37 -109 -44 -54 -14
-74 0 -90 67 -7 25 -26 73 -43 106 l-30 61 29 27 c17 14 52 35 78 45 l49 18
20 -29 c30 -43 73 -85 85 -85 6 0 20 9 32 21 27 27 19 63 -32 151 -21 36 -39
72 -39 79 0 6 -11 35 -24 63 -13 28 -27 62 -30 76 -3 14 -13 33 -21 44 -13 17
-19 17 -64 6 -28 -7 -51 -14 -51 -16 0 -3 11 -31 25 -64 29 -68 32 -110 10
-110 -8 0 -40 -14 -71 -31 -48 -28 -57 -30 -70 -17 -14 14 -104 212 -104 229
0 16 39 48 67 55 29 7 287 137 312 158 11 8 15 8 19 -3 2 -8 23 -50 46 -95 50
-98 74 -116 127 -93 36 15 37 16 29 57 -4 22 -17 51 -29 64 -11 12 -21 28 -21
35 0 6 -5 17 -10 24 -6 7 -24 34 -40 60 -21 34 -43 54 -73 67 -54 25 -64 24
-112 -5z"/>
<path d="M4728 1590 c-9 -6 -33 -40 -54 -78 -20 -37 -49 -81 -65 -99 -15 -17
-32 -49 -39 -70 -7 -21 -23 -49 -35 -63 -13 -14 -27 -42 -30 -63 -4 -20 -15
-47 -25 -60 -10 -13 -21 -39 -25 -59 -4 -20 -13 -39 -21 -42 -8 -3 -14 -16
-14 -29 0 -14 -7 -30 -15 -37 -8 -7 -15 -19 -15 -27 0 -7 -7 -16 -15 -19 -8
-3 -26 -31 -40 -62 -36 -79 -50 -92 -101 -92 -24 0 -55 -5 -69 -12 -26 -12
-42 -48 -30 -69 14 -21 91 -49 220 -77 102 -23 128 -26 132 -15 10 25 -8 85
-33 108 -28 26 -29 33 -7 57 9 10 21 28 27 41 14 27 94 41 121 21 9 -7 35 -16
56 -19 45 -8 70 -37 71 -84 1 -38 -20 -62 -73 -86 -48 -22 -61 -56 -33 -86 74
-82 278 -114 311 -50 14 30 12 35 -38 66 -52 33 -74 76 -60 118 6 18 16 80 22
137 5 58 15 148 20 200 6 52 15 142 19 200 5 58 13 134 18 170 7 53 5 75 -9
115 -15 44 -22 51 -56 62 -47 14 -93 15 -115 3z m16 -336 c3 -9 1 -46 -5 -82
-6 -37 -10 -95 -10 -129 l0 -62 -33 -6 c-18 -4 -48 -3 -67 2 -47 13 -50 50 -9
127 16 32 30 65 30 74 0 25 51 92 70 92 10 0 21 -7 24 -16z"/>
<path d="M7155 1503 c-11 -2 -49 -13 -85 -23 -36 -11 -87 -22 -115 -24 -52 -6
-83 -11 -175 -26 -30 -5 -72 -12 -93 -15 -29 -5 -43 -14 -57 -38 -24 -39 -27
-132 -5 -184 8 -19 15 -47 15 -62 0 -15 7 -36 15 -48 8 -12 12 -28 9 -36 -8
-21 34 -49 56 -37 23 12 45 101 32 127 -15 29 -22 124 -11 144 16 31 68 51
136 53 46 1 66 -3 73 -13 5 -8 11 -53 15 -100 3 -47 16 -122 27 -166 11 -44
24 -107 27 -140 3 -33 11 -67 16 -75 5 -8 10 -31 10 -50 1 -19 7 -62 15 -95
19 -86 10 -112 -42 -126 -46 -12 -108 -68 -108 -97 0 -10 7 -28 16 -40 24 -35
99 -30 249 18 69 22 144 43 168 47 55 8 72 27 68 72 -3 47 -25 62 -86 61 -78
-2 -81 -2 -95 28 -8 15 -20 34 -27 42 -7 9 -14 55 -17 104 -3 55 -11 97 -21
112 -8 13 -15 38 -15 56 0 18 -11 74 -25 123 -14 50 -30 119 -35 155 -6 36
-13 73 -16 83 -4 14 9 24 61 48 56 26 72 30 98 22 30 -9 32 -11 29 -54 -2 -33
5 -60 30 -111 18 -38 38 -68 45 -68 7 0 17 -9 23 -20 23 -44 80 -7 80 52 0 47
-59 270 -77 290 -13 15 -31 18 -102 17 -47 -1 -95 -3 -106 -6z"/>
<path d="M5511 1406 c-65 -37 -48 -152 26 -177 l33 -11 2 -76 c7 -322 -5 -631
-24 -643 -7 -5 -31 -9 -54 -9 -48 0 -88 -34 -82 -71 6 -42 68 -63 198 -67 63
-2 123 -8 132 -13 23 -12 31 -11 22 2 -4 7 3 19 16 29 47 35 22 112 -33 104
-12 -3 -32 4 -44 15 -21 18 -22 23 -15 107 6 62 5 99 -4 124 -9 25 -9 39 -2
48 9 11 25 176 27 280 1 49 17 39 39 -25 102 -292 122 -351 122 -373 0 -14 9
-44 21 -65 11 -22 34 -76 51 -119 47 -120 86 -148 158 -111 47 24 52 43 45
178 -4 84 -1 146 8 200 8 42 12 88 9 102 -2 14 -1 33 3 42 4 10 9 79 11 153 6
181 9 200 37 200 32 0 76 22 82 41 10 29 -12 68 -42 74 -15 3 -48 13 -73 21
-71 25 -199 30 -238 10 -29 -15 -32 -21 -32 -60 0 -52 11 -63 74 -75 26 -5 49
-11 52 -14 8 -7 21 -265 16 -317 -2 -25 -3 -63 -3 -85 1 -205 -1 -251 -9 -259
-7 -7 -10 -1 -10 16 0 14 -7 31 -16 38 -23 20 -45 80 -35 97 5 10 3 26 -4 42
-8 14 -27 54 -44 89 -17 34 -31 73 -31 87 0 14 -6 42 -14 62 -8 21 -17 59 -20
86 -3 26 -12 57 -20 70 -8 12 -26 61 -40 108 -14 47 -34 93 -44 102 -48 44
-204 71 -251 43z"/>
</g>
</svg>
